<svg width="25" height="49" viewBox="0 0 25 49" fill="none" xmlns="http://www.w3.org/2000/svg">
<path d="M24.5115 15.3143V7.65842C24.5115 6.81284 23.8256 6.12726 22.9795 6.12726H21.4475V1.53375C21.4475 0.68816 20.7617 0.0025787 19.9156 0.0025787C17.7467 0.0025787 14.4252 -0.163553 10.5261 2.1711C8.10238 1.45001 6.3882 1.53375 4.5959 1.53375C3.74978 1.53375 3.06393 2.21933 3.06393 3.06492V6.12726H1.53197C0.685842 6.12726 0 6.81284 0 7.65842V15.3143C0 21.5501 4.68638 26.7123 10.7238 27.4681V47.4688C10.7238 48.3144 11.4096 49 12.2557 49C13.1019 49 13.7877 48.3144 13.7877 47.4688V42.1097H16.0856C20.7316 42.1097 24.5115 38.3319 24.5115 33.6883V31.3915C24.5115 30.546 23.8256 29.8604 22.9795 29.8604H19.1496C17.1145 29.8604 15.2456 30.5853 13.7877 31.7903V27.4674C19.8161 26.7212 24.5115 21.5847 24.5115 15.3143ZM21.4475 15.3143C21.4475 18.0393 20.2418 20.5004 18.3361 22.1879C18.3662 21.9422 18.3836 21.6926 18.3836 21.4389C18.3836 17.5614 16.9332 14.0165 14.5472 11.3159C16.57 9.93633 18.9684 9.18959 21.4475 9.18959V15.3143ZM18.3836 3.06492V6.43617C18.1005 6.49378 17.8194 6.55952 17.5405 6.63292C16.5467 5.52101 15.4132 4.57369 14.1757 3.8082C15.5134 3.31938 16.9334 3.06492 18.3836 3.06492ZM6.12787 4.59609C9.1714 4.59609 12.127 5.70685 14.4257 7.82915C13.6671 8.22046 12.9397 8.67665 12.2512 9.1939C10.47 7.85547 8.38876 6.89562 6.12787 6.43512V4.59609ZM3.06393 15.3143V9.18959C9.82172 9.18959 15.3197 14.6846 15.3197 21.4389C15.3197 23.15 13.9059 24.5443 12.1752 24.4998C6.79322 24.367 3.06393 20.0933 3.06393 15.3143ZM19.1496 32.9227H21.4475V33.6883C21.4475 36.6433 19.0422 39.0474 16.0856 39.0474H13.7877V38.2818C13.7877 35.3268 16.1931 32.9227 19.1496 32.9227Z" fill="white"/>
</svg>
